<svg xmlns="http://www.w3.org/2000/svg" xmlns:xlink="http://www.w3.org/1999/xlink" width="335pt" height="332pt" viewBox="0.00 0.00 335.00 332.00">
<g id="graph0" class="graph" transform="scale(1 1) rotate(0) translate(4 328)">
<title>G</title>
<polygon fill="white" stroke="none" points="-4,4 -4,-328 330.72,-328 330.72,4 -4,4"/>
<!-- landingpage -->
<g id="node1" class="node">
<title>landingpage</title>
<ellipse fill="none" stroke="black" cx="95.95" cy="-306" rx="58.23" ry="18"/>
<text xml:space="preserve" text-anchor="middle" x="95.95" y="-301.8" font-family="Times,serif" font-size="14.00">landingpage</text>
</g>
<!-- register -->
<g id="node2" class="node">
<title>register</title>
<ellipse fill="none" stroke="black" cx="146.95" cy="-234" rx="39.99" ry="18"/>
<text xml:space="preserve" text-anchor="middle" x="146.95" y="-229.8" font-family="Times,serif" font-size="14.00">register</text>
</g>
<!-- landingpage&#45;&gt;register -->
<g id="edge1" class="edge">
<title>landingpage-&gt;register</title>
<path fill="none" stroke="black" d="M108.29,-288.05C114.33,-279.77 121.72,-269.62 128.42,-260.42"/>
<polygon fill="black" stroke="black" points="131.11,-262.67 134.17,-252.53 125.46,-258.55 131.11,-262.67"/>
</g>
<!-- searchbar -->
<g id="node4" class="node">
<title>searchbar</title>
<ellipse fill="none" stroke="black" cx="53.95" cy="-90" rx="48.03" ry="18"/>
<text xml:space="preserve" text-anchor="middle" x="53.95" y="-85.8" font-family="Times,serif" font-size="14.00">searchbar</text>
</g>
<!-- landingpage&#45;&gt;searchbar -->
<g id="edge3" class="edge">
<title>landingpage-&gt;searchbar</title>
<path fill="none" stroke="black" d="M92.58,-287.85C85.36,-251.07 68.33,-164.29 59.49,-119.24"/>
<polygon fill="black" stroke="black" points="62.98,-118.86 57.62,-109.72 56.11,-120.2 62.98,-118.86"/>
</g>
<!-- login -->
<g id="node3" class="node">
<title>login</title>
<ellipse fill="none" stroke="black" cx="150.95" cy="-162" rx="30.89" ry="18"/>
<text xml:space="preserve" text-anchor="middle" x="150.95" y="-157.8" font-family="Times,serif" font-size="14.00">login</text>
</g>
<!-- register&#45;&gt;login -->
<g id="edge2" class="edge">
<title>register-&gt;login</title>
<path fill="none" stroke="black" d="M147.93,-215.7C148.35,-208.41 148.85,-199.73 149.32,-191.54"/>
<polygon fill="black" stroke="black" points="152.81,-191.8 149.88,-181.62 145.82,-191.4 152.81,-191.8"/>
</g>
<!-- login&#45;&gt;searchbar -->
<g id="edge4" class="edge">
<title>login-&gt;searchbar</title>
<path fill="none" stroke="black" d="M132.24,-147.5C118.75,-137.76 100.23,-124.4 84.59,-113.11"/>
<polygon fill="black" stroke="black" points="86.68,-110.3 76.52,-107.29 82.58,-115.98 86.68,-110.3"/>
</g>
<!-- logout -->
<g id="node5" class="node">
<title>logout</title>
<ellipse fill="none" stroke="black" cx="155.95" cy="-90" rx="35.72" ry="18"/>
<text xml:space="preserve" text-anchor="middle" x="155.95" y="-85.8" font-family="Times,serif" font-size="14.00">logout</text>
</g>
<!-- login&#45;&gt;logout -->
<g id="edge5" class="edge">
<title>login-&gt;logout</title>
<path fill="none" stroke="black" d="M152.18,-143.7C152.7,-136.41 153.32,-127.73 153.91,-119.54"/>
<polygon fill="black" stroke="black" points="157.39,-119.84 154.62,-109.61 150.41,-119.34 157.39,-119.84"/>
</g>
<!-- verfiy_login -->
<g id="node6" class="node">
<title>verfiy_login</title>
<ellipse fill="none" stroke="black" cx="267.95" cy="-90" rx="58.77" ry="18"/>
<text xml:space="preserve" text-anchor="middle" x="267.95" y="-85.8" font-family="Times,serif" font-size="14.00">verfiy_login</text>
</g>
<!-- login&#45;&gt;verfiy_login -->
<g id="edge6" class="edge">
<title>login-&gt;verfiy_login</title>
<path fill="none" stroke="black" d="M171.86,-148.49C188.62,-138.46 212.51,-124.17 232.28,-112.34"/>
<polygon fill="black" stroke="black" points="233.8,-115.51 240.59,-107.37 230.21,-109.5 233.8,-115.51"/>
</g>
<!-- content_db -->
<g id="node8" class="node">
<title>content_db</title>
<ellipse fill="none" stroke="black" cx="53.95" cy="-18" rx="53.95" ry="18"/>
<text xml:space="preserve" text-anchor="middle" x="53.95" y="-13.8" font-family="Times,serif" font-size="14.00">content_db</text>
</g>
<!-- searchbar&#45;&gt;content_db -->
<g id="edge9" class="edge">
<title>searchbar-&gt;content_db</title>
<path fill="none" stroke="black" d="M48.03,-71.7C47.28,-64.41 47.03,-55.73 47.3,-47.54"/>
<polygon fill="black" stroke="black" points="50.79,-47.82 47.95,-37.61 43.8,-47.36 50.79,-47.82"/>
</g>
<!-- user_db -->
<g id="node7" class="node">
<title>user_db</title>
<ellipse fill="none" stroke="black" cx="267.95" cy="-18" rx="41.61" ry="18"/>
<text xml:space="preserve" text-anchor="middle" x="267.95" y="-13.8" font-family="Times,serif" font-size="14.00">user_db</text>
</g>
<!-- verfiy_login&#45;&gt;user_db -->
<g id="edge7" class="edge">
<title>verfiy_login-&gt;user_db</title>
<path fill="none" stroke="black" d="M262.03,-71.7C261.28,-64.41 261.03,-55.73 261.3,-47.54"/>
<polygon fill="black" stroke="black" points="264.79,-47.82 261.95,-37.61 257.8,-47.36 264.79,-47.82"/>
</g>
<!-- user_db&#45;&gt;verfiy_login -->
<g id="edge8" class="edge">
<title>user_db-&gt;verfiy_login</title>
<path fill="none" stroke="black" d="M273.84,-36.1C274.6,-43.37 274.85,-52.04 274.6,-60.24"/>
<polygon fill="black" stroke="black" points="271.11,-59.98 273.96,-70.19 278.09,-60.43 271.11,-59.98"/>
</g>
<!-- content_db&#45;&gt;searchbar -->
<g id="edge10" class="edge">
<title>content_db-&gt;searchbar</title>
<path fill="none" stroke="black" d="M59.84,-36.1C60.6,-43.37 60.85,-52.04 60.6,-60.24"/>
<polygon fill="black" stroke="black" points="57.11,-59.98 59.96,-70.19 64.09,-60.43 57.11,-59.98"/>
</g>
</g>
</svg>